<?xml version="1.0" standalone="no"?>
<!DOCTYPE svg PUBLIC "-//W3C//DTD SVG 20010904//EN"
 "http://www.w3.org/TR/2001/REC-SVG-20010904/DTD/svg10.dtd">
<svg version="1.0" xmlns="http://www.w3.org/2000/svg"
 width="1280.000000pt" height="1280.000000pt" viewBox="0 0 1280.000000 1280.000000"
 preserveAspectRatio="xMidYMid meet">

<g transform="translate(0.000000,1280.000000) scale(0.100000,-0.100000)"
fill="#000000" stroke="none">
<path d="M5170 8720 l0 -90 130 0 130 0 0 -340 0 -340 95 0 95 0 2 338 3 337
133 3 132 3 0 89 0 90 -360 0 -360 0 0 -90z"/>
<path d="M5990 8712 l0 -97 158 -157 157 -157 115 -3 115 -3 -2 -173 -1 -173
101 3 c56 2 101 6 100 11 -2 4 -3 196 -3 427 l0 420 -100 0 -100 0 0 -165 0
-165 -170 0 -170 0 0 165 0 165 -100 0 -100 0 0 -98z"/>
<path d="M6890 8796 c8 -8 53 -49 100 -90 l85 -76 223 0 222 0 0 90 0 90 -322
0 c-280 0 -320 -2 -308 -14z"/>
<path d="M6870 8341 l0 -391 325 0 325 0 0 90 0 90 -230 0 -230 0 0 216 0 217
-33 31 c-18 17 -61 55 -95 84 l-62 54 0 -391z"/>
<path d="M5990 8241 l0 -291 100 0 100 0 0 174 c0 96 4 176 9 178 5 2 -40 54
-100 117 l-109 113 0 -291z"/>
<path d="M7130 8390 l0 -90 165 0 165 0 0 90 0 90 -165 0 -165 0 0 -90z"/>
<path d="M1597 7458 c-4 -79 -7 -412 -7 -740 l0 -598 504 0 505 0 6 43 c3 23
5 101 3 172 l-3 130 -320 5 -320 5 -3 563 -2 562 -179 0 -178 0 -6 -142z m97
100 c-8 -28 -3 -24 -41 -31 -31 -6 -33 -5 -33 23 0 28 2 30 41 30 37 0 40 -2
33 -22z m92 -3 c14 -21 15 -34 5 -87 -5 -35 -13 -83 -17 -107 l-6 -44 -33 103
c-19 56 -31 109 -28 119 17 47 53 55 79 16z m154 -25 c0 -43 -3 -50 -19 -50
-12 0 -26 12 -33 28 -11 22 -20 27 -46 26 -18 -1 -32 2 -32 6 0 5 -3 15 -6 24
-5 14 4 16 65 16 l71 0 0 -50z m-66 -26 c6 -16 -56 -190 -73 -207 -8 -8 -11 2
-11 33 0 65 20 169 36 185 16 16 40 11 48 -11z m-166 -51 c23 -62 53 -175 48
-180 -3 -3 -76 108 -100 152 l-16 30 7 -30 c3 -16 26 -60 50 -96 23 -37 43
-70 43 -73 0 -6 -21 5 -87 48 -32 20 -33 23 -33 89 0 40 4 67 11 67 5 0 7 5 4
10 -12 19 4 40 28 40 21 0 28 -9 45 -57z m215 5 c15 -12 13 -18 -16 -63 -45
-71 -88 -125 -98 -125 -5 0 -3 10 6 23 8 13 23 48 34 79 34 99 43 109 74 86z
m17 -120 c0 -58 -2 -63 -39 -97 -34 -32 -40 -45 -52 -111 l-13 -74 -23 49
c-36 79 -32 108 28 173 28 31 58 71 67 89 9 18 19 33 24 33 4 0 8 -28 8 -62z
m-239 -85 c62 -40 66 -46 78 -95 6 -29 23 -73 36 -97 29 -51 30 -52 10 -45 -8
4 -22 1 -30 -6 -11 -9 -20 -5 -44 22 -25 27 -33 31 -48 22 -10 -6 -19 -25 -21
-43 -2 -18 -9 -31 -17 -31 -7 0 -20 -3 -29 -6 -14 -5 -16 13 -16 161 0 92 3
165 8 163 4 -1 37 -22 73 -45z m237 -176 c1 -86 -1 -157 -5 -157 -5 0 -23 23
-42 50 -38 56 -45 114 -18 166 8 16 12 35 10 42 -7 17 25 64 40 59 8 -2 13
-50 15 -160z m-200 -50 c6 -6 13 -24 17 -40 9 -33 12 -33 34 -5 11 13 24 19
34 15 18 -7 16 -36 -5 -106 l-11 -34 -14 44 c-18 52 -28 60 -68 57 -32 -3 -42
14 -31 58 7 26 27 31 44 11z m158 -94 c15 -21 30 -40 33 -43 4 -3 8 -35 10
-73 3 -61 0 -71 -29 -117 -35 -55 -60 -126 -60 -174 -1 -28 -2 -30 -14 -13 -8
10 -22 49 -31 87 l-17 69 66 77 c76 89 88 115 20 46 l-45 -47 27 55 c14 30 33
63 42 73 8 9 10 17 4 17 -6 0 -28 -31 -49 -70 -21 -38 -41 -70 -46 -70 -9 0 1
71 18 125 7 22 16 52 19 68 8 36 18 34 52 -10z m-206 5 c8 -13 20 -52 26 -88
7 -36 15 -74 19 -85 12 -34 -34 23 -61 77 -13 27 -26 48 -28 48 -14 0 5 -47
45 -105 26 -38 43 -72 38 -73 -5 -2 -30 9 -57 25 l-47 30 -3 72 c-2 53 0 71 8
66 9 -6 9 -2 1 12 -21 41 33 60 59 21z m78 -20 c18 -39 22 -74 15 -138 -7 -69
-13 -68 -36 10 -22 75 -30 127 -22 139 11 18 31 12 43 -11z m-1 -244 c5 -1 43
-157 39 -161 -2 -2 -19 5 -37 16 -19 11 -60 29 -91 41 l-58 21 0 78 0 78 73
-36 c39 -20 73 -36 74 -37z m171 -121 c-3 -139 -2 -151 21 -197 13 -26 57 -82
97 -123 79 -79 70 -89 -23 -24 -54 37 -117 122 -153 204 -19 43 -20 55 -11
113 9 60 52 174 66 174 3 0 5 -66 3 -147z m-148 -57 c29 -19 50 -46 76 -99 20
-39 52 -93 70 -118 19 -26 34 -50 34 -54 0 -4 -39 30 -87 76 -86 83 -135 114
-220 139 l-43 13 0 58 0 59 65 -24 c36 -13 83 -36 105 -50z m205 -46 c12 0 29
-8 37 -17 18 -21 62 -107 73 -143 4 -14 17 -44 28 -68 11 -23 17 -45 15 -47
-10 -10 -154 141 -172 179 -24 50 -35 127 -15 109 7 -7 23 -13 34 -13z m167
-45 c4 -22 7 -83 7 -135 l0 -95 -54 124 c-30 68 -60 130 -67 138 -10 12 -2 14
48 11 l59 -3 7 -40z m93 28 c-4 -10 -19 -65 -34 -123 l-26 -105 -6 85 c-4 47
-10 102 -14 123 l-7 37 47 0 c41 0 46 -2 40 -17z m85 10 c0 -21 -69 -186 -97
-233 -28 -47 -33 -51 -33 -29 0 30 48 225 61 252 9 16 69 25 69 10z m60 -25
c0 -56 -10 -74 -52 -98 l-40 -22 7 23 c28 92 47 129 66 129 15 0 19 -7 19 -32z
m178 -120 l-3 -153 -102 -3 c-57 -1 -103 1 -103 5 0 4 18 16 40 26 50 23 107
81 131 132 25 54 24 67 -3 56 -13 -4 -45 -9 -72 -10 -26 -1 -53 -4 -59 -8 -6
-4 -8 2 -4 18 4 13 7 39 7 57 l0 32 85 0 86 0 -3 -152z m-840 97 c49 -22 192
-146 192 -166 0 -13 -78 18 -167 67 -46 25 -83 43 -83 40 0 -18 210 -126 244
-126 9 0 16 -4 16 -9 0 -5 -25 -13 -57 -17 -96 -12 -183 19 -240 85 -18 21
-22 39 -23 95 l0 69 32 -7 c17 -3 56 -17 86 -31z m751 -59 c-5 -5 -218 -148
-238 -161 -16 -9 -13 -2 31 62 28 42 77 78 126 93 28 9 88 13 81 6z m51 -1 c0
-18 -34 -67 -73 -102 -46 -43 -138 -83 -189 -83 -29 0 -27 2 38 49 38 27 81
59 96 70 31 25 110 71 121 71 4 0 7 -2 7 -5z m-816 -148 c54 -28 184 -30 235
-4 19 9 38 17 43 17 10 0 86 -50 78 -51 -3 0 -107 -3 -232 -6 l-228 -5 0 62 0
62 31 -27 c18 -14 50 -36 73 -48z"/>
<path d="M3266 7512 c-137 -306 -578 -1328 -591 -1370 l-6 -22 186 2 187 3 53
115 c90 196 215 478 285 643 37 87 71 157 76 156 7 -1 77 -150 191 -406 4 -10
-28 -13 -144 -13 l-149 0 -62 -147 -61 -148 277 -3 277 -3 40 -97 40 -97 193
-3 c133 -2 192 1 192 8 0 15 -65 164 -205 470 -64 140 -143 316 -175 390 -32
74 -71 164 -87 200 -17 36 -65 143 -108 238 l-78 172 -146 0 -146 0 -39 -88z
m290 12 c14 -119 -12 -232 -73 -312 -19 -26 -38 -49 -40 -52 -16 -14 11 105
30 138 34 57 31 152 -6 215 -15 26 -32 47 -38 47 -12 0 -28 -40 -41 -108 l-11
-53 -43 48 c-24 26 -43 51 -44 54 0 4 7 23 15 42 l15 36 114 0 115 0 7 -55z
m39 26 c18 -35 19 -67 1 -99 -12 -22 -13 -20 -19 30 -8 64 -9 99 -2 99 2 0 11
-13 20 -30z m-135 -50 c23 -45 27 -133 8 -177 -12 -27 -12 -27 -18 27 l-7 55
-2 -50 -2 -50 -25 40 c-20 31 -24 49 -20 80 5 39 32 115 41 115 2 0 14 -18 25
-40z m-128 -70 c56 -66 98 -139 98 -170 -1 -20 -7 -13 -28 29 -18 36 -42 65
-71 85 -24 17 -50 36 -59 42 -16 11 -10 64 7 64 5 0 29 -23 53 -50z m325 -18
c4 -19 -5 -34 -48 -78 -29 -29 -55 -52 -57 -49 -7 7 18 77 46 133 24 47 28 50
40 35 7 -10 16 -29 19 -41z m-359 -29 c75 -51 120 -133 123 -224 2 -57 -8
-119 -19 -119 -7 0 -72 149 -92 213 -7 21 -14 36 -16 34 -5 -5 37 -136 65
-201 12 -27 20 -51 18 -53 -7 -7 -83 61 -109 97 -35 49 -48 93 -48 160 0 57
15 120 29 120 5 0 26 -12 49 -27z m411 -88 c0 -5 -19 -24 -43 -42 -53 -39
-108 -120 -134 -198 l-20 -59 -21 35 c-12 19 -21 39 -21 45 0 6 -7 17 -15 24
-24 20 7 65 119 172 l101 97 17 -32 c9 -18 17 -36 17 -42z m-498 -67 c10 -62
61 -141 115 -178 20 -13 32 -26 27 -27 -29 -10 -223 90 -223 114 0 19 62 154
68 148 3 -2 9 -28 13 -57z m529 3 l20 -40 -58 -54 c-80 -76 -152 -137 -162
-137 -13 0 9 69 43 133 27 53 107 137 128 137 5 0 18 -18 29 -39z m49 -113
c12 -29 26 -61 31 -70 17 -30 11 -44 -28 -66 -45 -25 -133 -38 -189 -27 l-38
7 84 24 c81 24 126 42 119 49 -1 2 -34 -7 -73 -20 -38 -12 -86 -25 -105 -29
-34 -5 -31 -1 65 89 54 52 102 95 106 95 3 0 16 -24 28 -52z m-636 -28 c38
-30 125 -68 185 -81 34 -7 52 -15 52 -25 0 -9 -20 -63 -44 -122 -78 -190 -103
-227 -89 -129 11 72 8 140 -7 176 -13 32 -33 40 -47 19 -8 -13 -6 -177 3 -213
9 -37 -55 47 -96 125 -46 88 -54 79 -10 -12 36 -74 38 -88 8 -62 -13 11 -42
33 -66 49 -23 15 -41 31 -40 35 46 106 64 140 73 137 5 -2 29 -37 53 -78 23
-40 42 -66 42 -57 0 20 -31 78 -66 125 -13 17 -24 36 -24 42 0 18 32 91 40 91
4 0 19 -9 33 -20z m713 -147 c11 -27 21 -51 22 -55 2 -5 -6 -8 -17 -8 -14 0
-21 6 -21 20 0 17 -3 18 -26 10 -41 -16 -64 -13 -58 8 4 9 -2 5 -12 -9 -36
-49 -76 -80 -97 -73 -40 13 -106 59 -116 81 -17 37 -13 43 19 31 49 -17 189
-6 235 18 22 12 43 22 46 23 4 0 15 -20 25 -46z m-626 -49 c19 -49 6 -208 -14
-175 -15 23 -21 201 -7 201 6 0 16 -12 21 -26z m594 -13 c4 -5 0 -12 -6 -14
-7 -3 -2 -6 12 -6 25 -1 60 -31 60 -51 0 -5 -9 -14 -20 -20 -16 -9 -20 -8 -20
4 0 16 -12 20 -95 32 l-50 7 42 11 c23 6 45 15 50 20 5 5 -2 6 -17 2 -76 -20
-77 -20 -45 3 31 22 80 28 89 12z m71 -31 c3 -5 1 -10 -4 -10 -6 0 -11 5 -11
10 0 6 2 10 4 10 3 0 8 -4 11 -10z m-270 -22 c34 -16 50 -33 66 -64 34 -72 57
-94 92 -93 23 1 26 3 10 6 -22 4 -83 65 -83 83 0 11 70 -31 106 -62 41 -36
104 14 68 54 -19 20 -19 20 12 36 20 11 24 5 68 -88 80 -169 78 -165 65 -224
-9 -43 -8 -63 5 -115 9 -35 15 -66 13 -68 -2 -1 -17 3 -33 11 -43 22 -143 46
-189 46 -38 0 -41 2 -59 48 -11 26 -41 93 -68 150 -26 56 -48 104 -48 106 0 5
-67 150 -81 179 -13 23 0 22 56 -5z m-560 -59 c30 -23 55 -43 55 -45 0 -1 -12
1 -27 7 -16 5 -54 12 -85 17 l-56 7 14 34 c16 39 22 38 99 -20z m764 32 c7 -5
11 -15 9 -22 -3 -8 5 -19 16 -24 25 -13 28 -48 4 -53 -21 -4 -103 54 -86 61 7
3 3 6 -8 6 -12 1 -32 10 -45 21 l-24 19 60 1 c33 0 66 -4 74 -9z m-731 -92
c35 -12 62 -23 60 -24 -5 -6 -217 11 -223 17 -3 3 -2 13 1 23 6 14 15 16 53
11 25 -3 74 -16 109 -27z m-146 -25 c3 -3 1 -19 -5 -35 -10 -24 -9 -32 3 -39
28 -18 132 -10 203 14 50 18 69 21 73 12 3 -9 -67 -180 -80 -194 -2 -1 -29 10
-62 25 -44 20 -74 27 -120 26 -66 -1 -129 -22 -66 -23 23 0 44 -11 75 -39 23
-21 48 -40 56 -43 18 -5 -25 -48 -49 -48 -18 0 -78 41 -97 67 -7 9 -13 12 -13
7 0 -13 78 -84 91 -84 23 0 5 -18 -23 -24 -18 -4 -46 -13 -63 -21 l-30 -14 30
6 c59 12 136 39 137 49 2 24 93 83 107 69 9 -10 -33 -80 -49 -81 -29 -2 -74
-17 -129 -45 -31 -16 -63 -29 -71 -29 -8 0 -22 -5 -30 -11 -16 -11 -9 -10 50
6 24 7 24 6 -7 -27 -49 -51 -40 -57 13 -8 40 37 170 107 180 97 2 -2 -9 -35
-26 -73 l-29 -69 -164 -2 -164 -2 115 269 c105 244 126 283 144 264z m199 -24
l34 -7 -30 -12 c-53 -22 -129 -34 -168 -27 -42 8 -48 27 -14 51 22 16 94 14
178 -5z m-83 -201 c50 -22 55 -34 10 -25 -24 4 -29 3 -18 -4 8 -5 24 -10 35
-11 14 0 11 -3 -10 -10 -16 -5 -39 -6 -50 -2 -27 8 -94 66 -88 76 6 10 68 -2
121 -24z m1006 -32 c-3 -10 -1 -16 5 -15 5 2 30 -39 55 -89 25 -51 41 -93 35
-93 -22 0 -90 53 -100 77 -20 52 -30 119 -24 153 l7 35 13 -25 c8 -14 12 -33
9 -43z m-109 -123 c23 -7 60 -21 81 -31 l39 -17 -45 -10 c-25 -6 -54 -16 -65
-23 -19 -11 -19 -12 7 -23 31 -15 91 -6 108 15 7 8 20 15 29 14 27 -1 73 -33
82 -57 l9 -22 -172 2 -172 3 -33 80 c-18 44 -33 84 -33 89 0 12 112 -1 165
-20z m110 -84 c-3 -5 -24 -10 -46 -10 -24 0 -38 4 -34 10 3 6 24 10 46 10 24
0 38 -4 34 -10z"/>
<path d="M3432 7455 c0 -16 2 -22 5 -12 2 9 2 23 0 30 -3 6 -5 -1 -5 -18z"/>
<path d="M3928 6593 c31 -30 41 -48 46 -86 10 -64 2 -69 -22 -13 -16 36 -30
50 -71 70 -28 14 -55 26 -61 26 -17 0 -12 -118 6 -148 20 -33 82 -82 104 -82
21 0 60 80 60 125 0 18 -5 46 -11 62 -13 34 -58 83 -76 83 -8 0 4 -17 25 -37z
m-52 -39 c41 -20 74 -70 74 -114 l0 -33 -41 44 c-36 38 -38 39 -17 9 14 -19
28 -45 32 -57 6 -19 4 -22 -11 -16 -63 23 -93 68 -93 138 0 50 6 53 56 29z"/>
<path d="M2848 6311 c-18 -16 -30 -33 -26 -36 4 -4 19 6 33 23 14 17 36 33 48
35 l22 4 -22 2 c-13 0 -37 -12 -55 -28z"/>
<path d="M4232 7113 c4 -477 4 -490 27 -558 36 -109 87 -193 166 -271 124
-123 279 -183 471 -184 99 0 214 24 285 60 115 59 227 158 287 255 87 140 92
182 92 731 l0 454 -184 0 -185 0 -4 -462 c-3 -500 -3 -501 -60 -585 -83 -125
-281 -150 -415 -53 -27 20 -51 50 -74 97 l-33 68 -3 467 -3 468 -185 0 -185 0
3 -487z m152 445 c16 -25 56 -139 56 -160 0 -6 -12 0 -27 14 -27 26 -122 73
-130 65 -2 -2 22 -17 54 -33 79 -40 115 -88 121 -161 l5 -58 -47 63 c-25 34
-48 62 -52 62 -6 0 -5 -1 42 -73 19 -28 30 -53 25 -55 -16 -5 -90 37 -105 61
-17 26 -60 165 -58 189 0 10 -3 20 -9 23 -10 7 -12 68 -2 78 3 4 30 7 59 7 45
0 56 -4 68 -22z m56 18 c0 -3 -5 -17 -10 -32 l-11 -28 -14 28 c-19 36 -19 36
10 36 14 0 25 -2 25 -4z m50 -9 c0 -17 -29 -57 -41 -57 -12 0 -11 12 1 44 10
27 40 36 40 13z m88 -112 c2 -66 0 -144 -3 -172 -6 -51 -8 -54 -55 -76 l-49
-24 5 56 c4 39 0 82 -15 145 l-21 88 29 33 c16 19 32 43 36 55 5 17 13 20 38
18 l32 -3 3 -120z m754 105 c28 -22 98 -148 98 -176 0 -13 -7 -8 -21 16 -27
46 -82 88 -133 101 -64 16 -66 17 -66 42 0 32 7 37 55 37 27 0 51 -7 67 -20z
m133 3 c-5 -10 -15 -40 -24 -66 l-17 -49 -18 41 c-11 22 -27 48 -37 57 -31 28
-22 34 42 34 54 0 60 -2 54 -17z m73 -83 l3 -95 -42 -55 c-53 -71 -53 -71 -46
-29 3 20 18 56 32 80 15 23 29 61 32 83 l4 41 -21 -55 c-11 -30 -27 -61 -35
-69 -13 -14 -15 -9 -15 42 0 82 35 161 69 155 13 -3 17 -21 19 -98z m-212 -18
c44 -22 77 -66 90 -116 l7 -30 -44 35 c-65 53 -81 57 -26 7 26 -24 47 -46 47
-51 0 -13 -51 -7 -87 9 -46 23 -85 76 -93 130 -4 24 -5 46 -3 48 7 7 68 -11
109 -32z m-1046 -94 c19 -92 63 -138 163 -172 18 -6 18 -7 -1 -33 -40 -57 -55
-100 -71 -202 l-17 -105 -24 35 c-13 19 -37 49 -53 68 -28 33 -28 35 -23 125
4 50 6 146 5 214 0 67 1 122 4 122 3 0 10 -24 17 -52z m955 3 c25 -49 77 -82
138 -88 62 -6 66 -13 67 -93 0 -53 38 -165 70 -210 12 -17 20 -34 17 -36 -3
-3 -31 12 -63 33 -52 34 -59 43 -66 80 -3 23 -14 55 -22 71 -15 30 -102 112
-117 112 -28 0 4 -115 44 -158 l22 -24 -50 7 c-27 4 -53 9 -57 12 -9 4 -11
323 -3 323 2 0 11 -13 20 -29z m305 -211 c0 -99 -4 -180 -9 -180 -12 0 -58
116 -68 176 -5 27 -6 63 -1 79 6 26 62 105 74 105 2 0 4 -81 4 -180z m-224 23
c41 -43 58 -74 67 -121 6 -30 5 -32 -13 -22 -42 23 -110 124 -110 166 0 23 17
16 56 -23z m-748 -28 c-3 -34 -13 -66 -25 -83 -21 -29 -97 -76 -113 -70 -5 2
11 29 36 61 25 31 43 57 40 57 -3 0 -26 -23 -52 -50 -26 -28 -49 -48 -51 -46
-12 11 25 94 55 123 29 30 81 60 106 62 5 1 6 -24 4 -54z m12 -189 l0 -113
-55 -62 c-30 -34 -67 -85 -82 -114 l-27 -52 -13 55 c-19 78 -27 239 -14 273 7
19 18 27 34 27 28 0 111 51 129 80 7 11 16 20 20 20 5 0 8 -51 8 -114z m745
65 l40 -19 -55 -3 -55 -2 58 -7 c32 -4 61 -10 64 -14 8 -8 -61 -36 -91 -36
-51 0 -75 17 -74 52 0 18 3 36 5 41 8 13 68 7 108 -12z m118 -62 c12 -7 39
-25 60 -41 l38 -30 -5 -132 c-5 -138 -20 -204 -63 -291 -29 -57 -129 -185
-144 -185 -24 0 5 63 45 100 67 62 99 130 100 211 0 63 -4 77 -45 156 -25 48
-50 88 -55 90 -27 9 -114 -195 -100 -234 8 -20 -6 -15 -39 15 l-31 27 4 146 4
147 61 -5 c50 -3 68 0 92 16 35 23 49 25 78 10z m-1106 -128 c28 -58 44 -181
25 -181 -6 0 -16 19 -23 42 -15 58 -50 150 -55 146 -2 -2 8 -37 22 -78 14 -41
22 -85 19 -97 -3 -12 -1 -25 5 -28 14 -8 12 -50 -3 -110 -12 -44 -15 -48 -24
-30 -22 40 -43 130 -43 179 l1 51 29 -35 c38 -45 38 -33 0 22 -29 43 -43 119
-27 145 4 6 3 23 -3 38 -5 14 -10 34 -10 43 1 26 58 -43 87 -107z m1077 -85
c44 -85 54 -143 36 -215 -11 -47 -71 -141 -89 -141 -5 0 -2 26 5 58 8 31 13
95 12 142 l-1 85 -7 -95 c-4 -53 -11 -111 -15 -130 -7 -34 -8 -33 -36 45 -40
108 -38 158 6 251 20 41 39 74 43 74 5 0 25 -33 46 -74z m-832 -28 c4 -80 3
-84 -25 -117 -35 -41 -66 -107 -67 -139 0 -39 -16 -16 -40 57 l-22 70 24 53
c26 55 102 158 117 158 5 0 11 -37 13 -82z m-113 -297 c12 -24 19 -42 14 -40
-29 13 -123 72 -133 84 -10 12 -10 30 0 82 21 116 27 117 64 11 18 -51 43
-113 55 -137z m787 153 c27 -24 57 -102 62 -161 2 -35 2 -63 -1 -63 -4 0 -20
27 -37 60 -32 64 -76 135 -67 110 3 -8 21 -50 41 -93 30 -64 32 -76 17 -67
-31 16 -89 90 -102 128 -9 28 -8 44 7 88 l18 54 25 -23 c14 -12 30 -27 37 -33z
m-642 -7 c21 -56 20 -99 -3 -146 -19 -37 -48 -68 -55 -60 -3 2 2 33 10 68 19
83 12 88 -11 9 -22 -75 -23 -77 -35 -58 -13 20 -13 102 0 135 12 31 59 95 70
95 4 0 15 -19 24 -43z m131 -152 c-35 -136 -31 -206 18 -262 l32 -36 -40 7
c-61 11 -88 24 -110 55 -11 16 -38 54 -59 85 l-39 57 35 37 c42 44 53 64 62
114 l7 37 50 -37 c38 -28 48 -42 44 -57z m415 58 c7 -21 42 -68 77 -104 35
-36 63 -75 63 -86 0 -23 -25 -47 -60 -58 -13 -4 -36 -20 -50 -35 -31 -34 -132
-67 -228 -76 l-67 -6 45 27 c61 36 76 51 121 118 45 67 48 81 17 72 -64 -18
-61 -19 -54 6 4 13 9 40 12 59 4 25 19 47 52 77 26 24 49 43 52 43 4 0 12 -17
20 -37z m-740 -71 c42 -27 87 -65 105 -89 85 -118 96 -135 91 -140 -8 -8 -122
63 -165 102 -38 34 -121 147 -121 164 0 17 10 13 90 -37z m445 1 c31 -4 42 -9
36 -17 -4 -6 -14 -29 -21 -51 l-13 -39 -16 24 c-9 13 -31 40 -48 58 -40 41
-41 46 -8 38 14 -4 45 -9 70 -13z m159 -10 c-12 -52 -41 -108 -84 -161 -23
-29 -44 -51 -46 -49 -3 2 9 34 25 71 17 36 28 66 26 66 -2 0 -17 -21 -32 -47
l-28 -48 -3 38 c-5 58 33 128 78 143 59 21 71 18 64 -13z m-221 -42 c51 -56
60 -79 60 -144 0 -82 -14 -88 -42 -16 -29 75 -39 71 -13 -5 21 -61 11 -73 -25
-33 -27 29 -39 54 -47 98 -7 39 10 139 24 139 4 0 24 -18 43 -39z m277 -47 c0
-15 -64 -96 -97 -122 -41 -32 -83 -56 -88 -50 -8 7 96 134 127 155 31 22 58
30 58 17z"/>
<path d="M4505 7441 c-9 -16 3 -31 26 -31 14 0 19 6 17 17 -4 20 -33 29 -43
14z m35 -11 c0 -5 -4 -10 -10 -10 -5 0 -10 5 -10 10 0 6 5 10 10 10 6 0 10 -4
10 -10z"/>
<path d="M4333 7098 c9 -24 -4 -30 -25 -11 -17 15 -18 15 -18 -4 0 -21 24 -33
48 -26 15 6 16 39 0 49 -7 5 -9 2 -5 -8z"/>
<path d="M4456 6914 c-19 -18 -19 -20 -6 -45 6 -10 19 -19 30 -19 16 0 40 26
40 44 0 8 -31 36 -40 36 -5 0 -16 -7 -24 -16z m44 -29 c0 -27 -9 -32 -28 -13
-18 18 -14 38 8 38 15 0 20 -7 20 -25z"/>
<path d="M5740 7492 c0 -122 -8 -105 116 -253 39 -46 254 -313 479 -594 224
-280 414 -514 421 -518 7 -4 69 -6 136 -5 l123 3 3 105 2 105 -90 115 c-50 63
-135 170 -188 238 -53 68 -194 244 -312 391 -118 148 -260 325 -315 394 l-100
125 -137 1 -138 1 0 -108z m333 -12 c169 -210 213 -263 222 -274 6 -6 80 -99
165 -206 85 -107 157 -197 160 -200 3 -3 53 -65 110 -139 58 -74 140 -179 183
-233 l77 -99 0 -89 0 -90 -113 0 -113 0 -379 476 c-209 262 -392 491 -406 508
-15 17 -67 81 -118 141 l-90 110 -1 93 0 93 117 -3 117 -3 69 -85z"/>
<path d="M6662 7244 c2 -275 6 -358 16 -362 9 -3 12 70 12 342 0 322 1 346 18
348 9 1 77 2 149 2 l133 1 0 -532 c0 -292 3 -538 6 -547 21 -54 24 31 22 542
l-3 557 -178 3 -177 2 2 -356z"/>
<path d="M7297 7547 c32 -30 76 -69 97 -88 22 -19 49 -43 61 -54 12 -11 46
-43 76 -71 l54 -51 135 -6 c98 -4 151 -11 194 -26 140 -49 233 -169 257 -331
18 -128 -22 -267 -101 -348 -89 -93 -187 -124 -371 -120 l-124 3 -3 361 -2
362 -161 143 c-88 79 -164 146 -169 147 -10 4 -15 -1330 -6 -1339 2 -2 163 -2
358 1 l353 5 80 28 c240 84 390 241 460 483 31 106 35 282 9 397 -54 239 -234
442 -454 511 -119 38 -210 46 -516 46 l-285 0 58 -53z"/>
<path d="M8680 7598 c0 -3 57 -56 126 -119 70 -63 147 -133 173 -156 l46 -42
159 -1 c182 0 224 -9 277 -60 96 -91 66 -276 -54 -331 -36 -16 -67 -19 -224
-19 l-183 0 0 163 -1 162 -27 20 c-15 11 -87 74 -160 140 -74 66 -138 122
-143 123 -5 2 -9 -264 -9 -672 l0 -676 170 0 170 0 0 215 0 215 123 0 123 0
19 -32 c10 -18 72 -114 137 -213 l118 -180 193 -5 c105 -3 195 -4 199 -2 3 1
-67 111 -155 245 -89 133 -163 247 -165 252 -1 6 14 19 34 30 65 35 140 119
179 200 69 143 69 321 1 470 -33 72 -121 164 -194 203 -115 61 -140 64 -554
69 -208 3 -378 3 -378 1z"/>
<path d="M9866 7553 c15 -27 35 -59 44 -73 10 -14 66 -108 125 -210 167 -288
337 -574 349 -587 8 -9 32 23 95 130 47 78 124 205 171 282 193 312 301 497
295 503 -14 15 -43 -27 -206 -298 -94 -157 -174 -286 -178 -288 -5 -1 -84 130
-176 293 l-169 295 -188 0 -189 0 27 -47z"/>
<path d="M11007 7528 c-204 -332 -554 -913 -581 -965 -13 -27 -16 -66 -16
-233 l0 -200 165 0 165 0 0 260 0 259 61 103 c160 269 267 450 378 635 67 112
121 205 121 208 0 3 -56 5 -124 5 l-124 0 -45 -72z"/>
<path d="M5742 6683 l3 -558 177 -3 177 -2 3 346 c2 261 0 351 -9 363 -10 13
-12 -56 -13 -331 l0 -348 -155 0 -155 0 -2 542 c-2 424 -6 542 -16 546 -10 3
-12 -109 -10 -555z"/>
<path d="M5101 5869 c-395 -70 -768 -281 -840 -475 -25 -66 -26 -86 -5 -147
17 -49 69 -103 112 -114 37 -9 37 4 -2 47 -62 69 -47 150 46 243 147 147 419
273 718 334 169 35 395 37 512 5 184 -50 231 -139 147 -278 -112 -185 -411
-372 -726 -455 -65 -17 -128 -35 -140 -40 -51 -19 -11 -119 48 -119 17 0 84
16 150 35 241 70 429 35 488 -91 20 -41 23 -60 19 -127 -3 -43 -9 -82 -15 -88
-8 -8 -37 -8 -99 0 -49 6 -159 11 -244 11 -210 0 -353 -18 -622 -76 l-27 -6
23 58 c31 76 135 303 151 329 7 11 40 74 75 140 97 187 231 403 280 453 l44
44 -32 29 c-61 55 -83 40 -195 -129 -169 -256 -350 -610 -448 -879 l-34 -91
-55 -22 c-295 -119 -455 -284 -421 -433 47 -201 382 -286 769 -196 286 66 584
237 775 443 37 40 132 184 141 214 9 27 16 27 67 1 43 -21 55 -20 46 6 -5 13
-55 49 -79 57 -4 2 -4 29 2 61 11 69 0 142 -31 202 -42 81 -142 162 -229 185
-25 7 -52 14 -60 17 -9 2 9 17 45 36 158 85 323 220 384 316 47 73 73 157 67
213 -17 153 -131 256 -325 292 -114 22 -344 20 -480 -5z m467 -1325 l22 -6
-26 -47 c-118 -204 -375 -394 -693 -511 -426 -156 -873 -82 -801 134 14 43 75
113 139 160 52 38 218 126 239 126 8 0 12 -17 12 -54 0 -39 6 -60 21 -80 28
-35 59 -35 59 0 0 36 39 166 53 180 22 22 277 76 437 94 52 5 111 12 130 14
51 6 381 -2 408 -10z"/>
<path d="M6615 5853 c-178 -97 -510 -643 -694 -1141 -106 -289 -109 -491 -7
-553 40 -24 87 -24 135 0 51 27 172 141 256 244 l70 86 6 -68 c8 -77 26 -118
68 -154 111 -93 255 -37 400 156 39 51 47 57 81 57 45 0 92 16 141 46 l36 23
-1 -97 c-1 -89 1 -101 26 -144 50 -85 149 -110 244 -63 57 28 160 126 201 191
26 40 31 44 69 44 27 0 65 12 108 33 36 19 66 29 66 23 0 -6 -14 -42 -30 -81
-17 -38 -33 -93 -36 -121 -6 -47 -4 -52 21 -72 28 -22 55 -29 55 -14 0 18 182
281 265 384 145 180 307 330 331 306 3 -4 -35 -86 -85 -183 -142 -273 -153
-314 -102 -366 16 -16 34 -29 39 -29 5 0 49 44 98 98 223 246 428 427 448 394
3 -5 -21 -55 -53 -113 -135 -247 -156 -359 -80 -423 36 -31 62 -32 128 -7 90
34 247 176 367 331 81 106 89 120 71 137 -13 13 -21 6 -72 -59 -32 -40 -108
-123 -169 -184 -86 -85 -127 -118 -179 -144 -82 -40 -96 -34 -78 35 12 47 73
172 156 320 53 96 58 139 19 176 -48 45 -125 24 -235 -66 -24 -20 -111 -102
-193 -183 l-149 -147 43 80 c135 250 161 315 141 363 -7 16 -27 38 -45 47 -32
18 -34 17 -92 -9 -85 -39 -270 -229 -433 -444 -46 -61 -33 -22 39 115 81 154
146 258 178 287 12 11 22 25 22 32 0 20 -50 54 -80 54 -43 0 -79 -49 -190
-260 -56 -108 -73 -130 -124 -172 -57 -45 -146 -86 -164 -74 -5 3 4 43 21 88
38 108 43 221 11 265 -47 63 -116 67 -181 10 -98 -86 -107 -267 -18 -366 l34
-37 -45 -58 c-59 -75 -99 -111 -152 -137 -60 -29 -88 -20 -102 32 -30 112 62
348 188 481 28 30 33 40 23 51 -9 12 -5 20 26 45 74 58 121 75 185 68 53 -5
58 -4 58 14 0 70 -130 91 -233 38 -68 -34 -196 -172 -250 -268 -55 -98 -66
-111 -127 -163 -39 -33 -144 -77 -156 -64 -2 2 3 24 12 48 49 137 57 234 24
300 -50 97 -175 68 -235 -55 -50 -102 -31 -234 42 -302 l25 -23 -35 -48 c-95
-128 -216 -198 -258 -147 -7 9 -13 42 -13 77 -1 118 87 316 186 423 42 44 57
68 56 85 -3 20 7 29 57 56 62 34 113 41 160 23 33 -13 44 10 21 44 -33 51
-133 59 -218 18 -74 -37 -181 -143 -244 -244 -162 -262 -335 -472 -460 -559
-95 -66 -119 -49 -111 79 6 96 28 191 78 327 31 87 36 93 149 210 178 182 266
289 386 470 130 196 214 378 214 462 0 71 -81 106 -155 66z m93 -107 c-12
-100 -183 -396 -349 -601 -93 -115 -230 -267 -236 -261 -6 5 147 311 215 431
123 218 318 475 361 475 10 0 12 -11 9 -44z m200 -868 c7 -7 12 -28 12 -48 0
-78 -67 -266 -92 -258 -6 2 -21 22 -32 44 -38 72 -20 175 42 242 32 34 51 39
70 20z m720 -52 c3 -64 -33 -202 -63 -241 -15 -20 -15 -20 -35 3 -57 68 -44
197 28 275 16 16 35 27 47 25 17 -3 20 -12 23 -62z"/>
<path d="M4010 5371 c0 -6 4 -13 10 -16 6 -3 7 1 4 9 -7 18 -14 21 -14 7z"/>
</g>
</svg>
